<svg width="128" height="48" viewBox="0 0 128 48" fill="none" xmlns="http://www.w3.org/2000/svg">
<g clip-path="url(#clip0_33_2)">
<g clip-path="url(#clip1_33_2)">
<path d="M36.75 0H11.25C5.0368 0 0 5.0368 0 11.25V36.75C0 42.9632 5.0368 48 11.25 48H36.75C42.9632 48 48 42.9632 48 36.75V11.25C48 5.0368 42.9632 0 36.75 0Z" fill="#5A45FE"/>
<path fill-rule="evenodd" clip-rule="evenodd" d="M20.0638 6C18.972 6 17.9249 6.43899 17.1529 7.22039C16.3809 8.00179 15.9472 9.0616 15.9472 10.1667V21.77C15.507 21.3925 15.0265 21.0661 14.5146 20.7967C12.835 19.9333 11.2049 20.0667 9.48744 20.7767C8.10427 21.3517 7.66462 22.9567 8.25741 24.1567L12.9371 33.63C14.0311 35.8443 15.7125 37.7066 17.7931 39.0083C19.8736 40.3099 22.2712 40.9996 24.7171 41H25.827C29.3207 41 32.6713 39.5952 35.1417 37.0948C37.6121 34.5943 39 31.2029 39 27.6667V15.1667C39 14.0616 38.5663 13.0018 37.7943 12.2204C37.0223 11.439 35.9752 11 34.8834 11C33.7916 11 32.7446 11.439 31.9726 12.2204C31.2006 13.0018 30.7668 14.0616 30.7668 15.1667V17.75C30.1967 17.6323 29.6084 17.6383 29.0408 17.7676C28.4731 17.8969 27.939 18.1465 27.4736 18.5C27.0082 18.1465 26.4741 17.8969 25.9064 17.7676C25.3387 17.6383 24.7505 17.6323 24.1803 17.75V10.1667C24.1803 9.61949 24.0738 9.07768 23.867 8.57215C23.6601 8.06663 23.3569 7.6073 22.9746 7.22039C22.5924 6.83348 22.1385 6.52656 21.6391 6.31717C21.1397 6.10777 20.6043 6 20.0638 6ZM30.7668 21.8333C30.7668 21.6123 30.6801 21.4004 30.5257 21.2441C30.3713 21.0878 30.1619 21 29.9435 21C29.7252 21 29.5158 21.0878 29.3614 21.2441C29.207 21.4004 29.1202 21.6123 29.1202 21.8333V22.6667C29.1202 23.1087 28.9467 23.5326 28.6379 23.8452C28.3291 24.1577 27.9103 24.3333 27.4736 24.3333C27.0369 24.3333 26.618 24.1577 26.3092 23.8452C26.0004 23.5326 25.827 23.1087 25.827 22.6667V21.8333C25.827 21.6123 25.7402 21.4004 25.5858 21.2441C25.4314 21.0878 25.222 21 25.0036 21C24.7853 21 24.5759 21.0878 24.4215 21.2441C24.2671 21.4004 24.1803 21.6123 24.1803 21.8333V24.3333C24.1803 24.7754 24.0068 25.1993 23.698 25.5118C23.3892 25.8244 22.9704 26 22.5337 26C22.097 26 21.6782 25.8244 21.3694 25.5118C21.0606 25.1993 20.8871 24.7754 20.8871 24.3333V10.1667C20.8871 9.94565 20.8003 9.73369 20.6459 9.57741C20.4915 9.42113 20.2821 9.33333 20.0638 9.33333C19.8454 9.33333 19.636 9.42113 19.4816 9.57741C19.3272 9.73369 19.2404 9.94565 19.2404 10.1667V26C19.2402 26.3451 19.1341 26.6815 18.9369 26.963C18.7396 27.2444 18.461 27.4569 18.1393 27.5712C17.8177 27.6856 17.4689 27.696 17.1411 27.6012C16.8134 27.5063 16.5228 27.3108 16.3094 27.0417C14.7863 25.115 13.8115 24.175 13.0244 23.7683C12.6045 23.5371 12.116 23.4679 11.6495 23.5733L15.8813 32.14C16.7019 33.8007 17.9632 35.1973 19.5238 36.1734C21.0844 37.1496 22.8826 37.6666 24.7171 37.6667H25.827C28.4472 37.6667 30.9602 36.6131 32.813 34.7377C34.6658 32.8624 35.7067 30.3188 35.7067 27.6667V15.1667C35.7067 14.9457 35.62 14.7337 35.4656 14.5774C35.3112 14.4211 35.1018 14.3333 34.8834 14.3333C34.6651 14.3333 34.4557 14.4211 34.3013 14.5774C34.1469 14.7337 34.0601 14.9457 34.0601 15.1667V24.3333C34.0601 24.7754 33.8866 25.1993 33.5778 25.5118C33.269 25.8244 32.8502 26 32.4135 26C31.9768 26 31.5579 25.8244 31.2491 25.5118C30.9403 25.1993 30.7668 24.7754 30.7668 24.3333V21.8333Z" fill="#F8FAFC"/>
</g>
</g>
<path d="M60.9891 24.8438C60.9891 24.2839 61.0151 23.7435 61.0672 23.2227C61.1323 22.6888 61.269 22.2201 61.4773 21.8164C61.6857 21.3997 61.9852 21.0742 62.3758 20.8398C62.7794 20.5924 63.3198 20.4688 63.9969 20.4688C64.6479 20.4688 65.1688 20.5924 65.5594 20.8398C65.95 21.0742 66.243 21.3997 66.4383 21.8164C66.6466 22.2201 66.7768 22.6888 66.8289 23.2227C66.894 23.7435 66.9266 24.2839 66.9266 24.8438V39.4141C66.9266 40.625 66.881 41.7448 66.7898 42.7734C66.6987 43.8021 66.4578 44.6875 66.0672 45.4297C65.6766 46.1719 65.0841 46.7513 64.2898 47.168C63.4956 47.5977 62.3953 47.8125 60.9891 47.8125C60.4161 47.8125 59.8693 47.7539 59.3484 47.6367C58.8276 47.5195 58.3719 47.3372 57.9813 47.0898C57.5906 46.8424 57.2781 46.5299 57.0438 46.1523C56.8094 45.7747 56.6922 45.3255 56.6922 44.8047C56.6922 44.3229 56.7443 43.9258 56.8484 43.6133C56.9396 43.3008 57.0958 43.0469 57.3172 42.8516C57.5255 42.6693 57.7924 42.5391 58.118 42.4609C58.4565 42.3828 58.8667 42.3438 59.3484 42.3438C59.7521 42.3438 60.0646 42.2591 60.2859 42.0898C60.5073 41.9336 60.6701 41.7188 60.7742 41.4453C60.8784 41.1719 60.937 40.8594 60.95 40.5078C60.976 40.1562 60.9891 39.7917 60.9891 39.4141V24.8438ZM66.9266 15.5859C66.9266 16.5625 66.6661 17.2982 66.1453 17.793C65.6375 18.2747 64.9214 18.5156 63.9969 18.5156C63.0594 18.5156 62.3237 18.2747 61.7898 17.793C61.256 17.2982 60.9891 16.5625 60.9891 15.5859C60.9891 14.5703 61.256 13.8216 61.7898 13.3398C62.3237 12.8581 63.0594 12.6172 63.9969 12.6172C64.9995 12.6172 65.7352 12.8581 66.2039 13.3398C66.6857 13.8216 66.9266 14.5703 66.9266 15.5859ZM69.2828 24.9219C69.2828 24.362 69.3154 23.8151 69.3805 23.2812C69.4456 22.7474 69.5823 22.2721 69.7906 21.8555C70.012 21.4388 70.318 21.1068 70.7086 20.8594C71.1122 20.599 71.6526 20.4688 72.3297 20.4688C72.9938 20.4688 73.5211 20.599 73.9117 20.8594C74.3023 21.1068 74.6018 21.4388 74.8102 21.8555C75.0185 22.2721 75.1487 22.7474 75.2008 23.2812C75.2659 23.8151 75.2984 24.362 75.2984 24.9219V32.5391C75.2984 32.9167 75.3115 33.2812 75.3375 33.6328C75.3766 33.9714 75.4547 34.2773 75.5719 34.5508C75.6891 34.8112 75.8583 35.026 76.0797 35.1953C76.3141 35.3516 76.6266 35.4297 77.0172 35.4297C77.538 35.4297 77.9612 35.2539 78.2867 34.9023C78.6253 34.5508 78.8857 34.069 79.068 33.457C79.2633 32.8451 79.3935 32.1289 79.4586 31.3086C79.5237 30.4753 79.5563 29.5833 79.5563 28.6328V24.9219C79.5563 24.362 79.5888 23.8151 79.6539 23.2812C79.719 22.7474 79.8557 22.2721 80.0641 21.8555C80.2854 21.4388 80.5914 21.1068 80.982 20.8594C81.3857 20.599 81.926 20.4688 82.6031 20.4688C83.2672 20.4688 83.7945 20.599 84.1852 20.8594C84.5758 21.1068 84.8753 21.4388 85.0836 21.8555C85.2919 22.2721 85.4221 22.7474 85.4742 23.2812C85.5393 23.8151 85.5719 24.362 85.5719 24.9219V35.5859C85.5719 36.1458 85.5523 36.6927 85.5133 37.2266C85.4742 37.7474 85.357 38.2161 85.1617 38.6328C84.9664 39.0365 84.6669 39.3685 84.2633 39.6289C83.8727 39.8763 83.3193 40 82.6031 40C81.887 40 81.3271 39.8828 80.9234 39.6484C80.5198 39.401 80.2138 39.1081 80.0055 38.7695C79.8102 38.431 79.6865 38.0729 79.6344 37.6953C79.5823 37.3177 79.5563 36.9922 79.5563 36.7188C79.4521 37.0964 79.2893 37.4805 79.068 37.8711C78.8466 38.2617 78.5602 38.6133 78.2086 38.9258C77.8701 39.2383 77.4599 39.4987 76.9781 39.707C76.4964 39.9023 75.9365 40 75.2984 40C74.5823 40 73.8661 39.8828 73.15 39.6484C72.4339 39.4141 71.7893 39.0234 71.2164 38.4766C70.6435 37.9297 70.1747 37.2135 69.8102 36.3281C69.4586 35.4427 69.2828 34.349 69.2828 33.0469V24.9219ZM104.061 35.5469C104.061 36.1068 104.028 36.6536 103.963 37.1875C103.898 37.7214 103.755 38.1966 103.534 38.6133C103.325 39.0299 103.019 39.3685 102.616 39.6289C102.225 39.8763 101.691 40 101.014 40C100.35 40 99.8227 39.8763 99.432 39.6289C99.0414 39.3685 98.7419 39.0299 98.5336 38.6133C98.3253 38.1966 98.1885 37.7214 98.1234 37.1875C98.0714 36.6536 98.0453 36.1068 98.0453 35.5469V27.9297C98.0453 27.5651 98.0258 27.207 97.9867 26.8555C97.9607 26.5039 97.8891 26.1979 97.7719 25.9375C97.6547 25.6641 97.4789 25.4492 97.2445 25.293C97.0232 25.1237 96.7172 25.0391 96.3266 25.0391C95.7927 25.0391 95.363 25.2148 95.0375 25.5664C94.712 25.918 94.4516 26.3997 94.2562 27.0117C94.074 27.6237 93.9503 28.3464 93.8852 29.1797C93.8201 30 93.7875 30.8854 93.7875 31.8359V35.5469C93.7875 36.1068 93.7549 36.6536 93.6898 37.1875C93.6247 37.7214 93.4815 38.1966 93.2602 38.6133C93.0518 39.0299 92.7458 39.3685 92.3422 39.6289C91.9516 39.8763 91.4177 40 90.7406 40C90.0766 40 89.5492 39.8763 89.1586 39.6289C88.768 39.3685 88.4685 39.0299 88.2602 38.6133C88.0518 38.1966 87.9151 37.7214 87.85 37.1875C87.7979 36.6536 87.7719 36.1068 87.7719 35.5469V24.8828C87.7719 24.3229 87.7914 23.7826 87.8305 23.2617C87.8695 22.7279 87.9867 22.2591 88.182 21.8555C88.3773 21.4388 88.6703 21.1068 89.0609 20.8594C89.4646 20.599 90.0245 20.4688 90.7406 20.4688C91.4568 20.4688 92.0167 20.5924 92.4203 20.8398C92.824 21.0742 93.1234 21.3607 93.3187 21.6992C93.5271 22.0378 93.6573 22.3958 93.7094 22.7734C93.7615 23.151 93.7875 23.4766 93.7875 23.75C93.8917 23.3724 94.0544 22.9883 94.2758 22.5977C94.4971 22.207 94.7771 21.8555 95.1156 21.543C95.4672 21.2305 95.8839 20.9766 96.3656 20.7812C96.8474 20.5729 97.4073 20.4688 98.0453 20.4688C98.7615 20.4688 99.4776 20.5859 100.194 20.8203C100.91 21.0547 101.554 21.4453 102.127 21.9922C102.7 22.5391 103.162 23.2552 103.514 24.1406C103.879 25.026 104.061 26.1198 104.061 27.4219V35.5469ZM121.808 28.8672C121.808 29.0755 121.795 29.3229 121.769 29.6094C121.743 29.8828 121.639 30.1497 121.456 30.4102C121.287 30.6576 121.014 30.8724 120.636 31.0547C120.258 31.237 119.724 31.3281 119.034 31.3281H111.261V33.2031C111.261 33.5156 111.3 33.8411 111.378 34.1797C111.456 34.5182 111.586 34.8307 111.769 35.1172C111.964 35.4036 112.218 35.638 112.53 35.8203C112.843 36.0026 113.227 36.0938 113.683 36.0938C114.204 36.0938 114.601 36.0352 114.874 35.918C115.161 35.7878 115.382 35.6315 115.538 35.4492C115.708 35.2669 115.857 35.0716 115.987 34.8633C116.118 34.6549 116.287 34.4596 116.495 34.2773C116.717 34.0951 117.016 33.9453 117.394 33.8281C117.784 33.6979 118.318 33.6328 118.995 33.6328C119.321 33.6328 119.633 33.6589 119.933 33.7109C120.245 33.763 120.519 33.8607 120.753 34.0039C120.987 34.1471 121.176 34.349 121.32 34.6094C121.463 34.8568 121.534 35.1823 121.534 35.5859C121.534 36.4323 121.267 37.1419 120.734 37.7148C120.2 38.2747 119.529 38.724 118.722 39.0625C117.915 39.401 117.036 39.6419 116.085 39.7852C115.148 39.9284 114.269 40 113.448 40C112.368 39.987 111.339 39.8503 110.362 39.5898C109.386 39.3294 108.52 38.9128 107.765 38.3398C107.023 37.7669 106.43 37.0182 105.987 36.0938C105.545 35.1693 105.323 34.0365 105.323 32.6953V28.125C105.323 26.888 105.467 25.8398 105.753 24.9805C106.053 24.1211 106.437 23.4049 106.905 22.832C107.374 22.2591 107.902 21.8164 108.487 21.5039C109.073 21.1784 109.666 20.9375 110.265 20.7812C110.864 20.625 111.43 20.5273 111.964 20.4883C112.511 20.4492 112.98 20.4297 113.37 20.4297C114.685 20.4297 115.805 20.5469 116.73 20.7812C117.667 21.0156 118.448 21.3216 119.073 21.6992C119.698 22.0768 120.193 22.513 120.558 23.0078C120.922 23.5026 121.196 24.0169 121.378 24.5508C121.56 25.0716 121.678 25.6055 121.73 26.1523C121.782 26.6862 121.808 27.1875 121.808 27.6562V28.8672ZM111.261 28.3984H116.144C116.144 27.7865 116.124 27.2461 116.085 26.7773C116.059 26.2956 115.961 25.8919 115.792 25.5664C115.636 25.2409 115.382 24.9935 115.03 24.8242C114.692 24.6549 114.204 24.5703 113.566 24.5703C113.032 24.5703 112.609 24.6549 112.296 24.8242C111.997 24.9935 111.769 25.2083 111.612 25.4688C111.456 25.7161 111.359 25.9831 111.32 26.2695C111.28 26.556 111.261 26.8099 111.261 27.0312V28.3984Z" fill="black"/>
<defs>
<clipPath id="clip0_33_2">
<rect width="48" height="48" fill="white"/>
</clipPath>
<clipPath id="clip1_33_2">
<rect width="48" height="48" fill="white"/>
</clipPath>
</defs>
</svg>
